<svg width="32" height="32" viewBox="0 0 32 32" fill="none" xmlns="http://www.w3.org/2000/svg">
<g clip-path="url(#clip0_208_18262)">
<path d="M16.2026 9.19467C14.9386 9.19467 12.9826 7.75733 10.9226 7.808C8.20257 7.844 5.70924 9.38533 4.3079 11.8267C1.48524 16.7267 3.5799 23.964 6.33324 27.9467C7.6839 29.8853 9.27724 32.0667 11.3892 31.9987C13.4159 31.912 14.1759 30.6827 16.6359 30.6827C19.0772 30.6827 19.7692 31.9987 21.9159 31.9467C24.0986 31.912 25.4839 29.9733 26.8172 28.016C28.3586 25.7653 28.9986 23.5827 29.0332 23.4627C28.9812 23.4453 24.7906 21.8347 24.7399 16.9867C24.7052 12.9333 28.0466 10.9947 28.2026 10.908C26.2972 8.12133 23.3719 7.80933 22.3492 7.74C19.6826 7.532 17.4492 9.19333 16.2026 9.19333V9.19467ZM20.7066 5.10667C21.8306 3.75733 22.5732 1.87067 22.3666 0C20.7572 0.0693333 18.8172 1.07333 17.6572 2.424C16.6172 3.61867 15.7186 5.54133 15.9599 7.376C17.7439 7.51467 19.5799 6.45867 20.7052 5.108" fill="white"/>
</g>
<defs>
<clipPath id="clip0_208_18262">
<rect width="32" height="32" fill="white"/>
</clipPath>
</defs>
</svg>
