<svg width="12" height="12" viewBox="0 0 12 12" fill="none" xmlns="http://www.w3.org/2000/svg">
<path d="M11.9549 1.87714C12.0609 2.09652 11.9737 2.36264 11.7601 2.47154C11.5465 2.58045 11.2874 2.49089 11.1814 2.27152L10.9077 1.70535L8.04576 7.93011C7.67291 8.74103 6.56569 8.78539 6.13248 8.00675L3.97968 4.13733C3.88896 3.97428 3.6543 3.99365 3.59009 4.16949L0.836167 11.7121C0.752438 11.9415 0.50356 12.0576 0.280283 11.9716C0.0570055 11.8856 -0.0561208 11.63 0.0276082 11.4007L2.78154 3.85807C3.10255 2.97887 4.27585 2.88202 4.72944 3.6973L6.88225 7.56671C6.96889 7.72244 7.19033 7.71357 7.2649 7.55138L10.1599 1.25477L9.35893 1.66317C9.14534 1.77208 8.88623 1.68253 8.7802 1.46315C8.67417 1.24378 8.76136 0.977662 8.97495 0.868758L10.5879 0.0463506C10.8015 -0.062553 11.0606 0.0269988 11.1666 0.24637L11.9549 1.87714Z" fill="#A5EA75"/>
</svg>
