<svg width="13" height="13" viewBox="0 0 13 13" fill="none" xmlns="http://www.w3.org/2000/svg">
<path d="M11.0066 11.6407L10.1388 11.1982C9.90745 11.0802 9.62675 11.1773 9.51188 11.4149C9.39701 11.6526 9.49147 11.9409 9.72286 12.0588L11.4702 12.9498C11.7016 13.0678 11.9823 12.9708 12.0972 12.7331L12.9511 10.9664C13.066 10.7288 12.9715 10.4405 12.7401 10.3225C12.5087 10.2045 12.228 10.3015 12.1132 10.5392L11.8167 11.1525L8.71624 4.40905C8.31232 3.53055 7.11283 3.4825 6.64352 4.32602L4.31132 8.51789C4.21304 8.69453 3.95882 8.67355 3.88927 8.48305L0.905848 0.31186C0.815141 0.0634277 0.545524 -0.0624436 0.30364 0.0307187C0.0617559 0.123881 -0.0607975 0.400798 0.0299089 0.649231L3.01333 8.82042C3.36109 9.77289 4.63217 9.87781 5.12356 8.99459L7.45577 4.80273C7.54963 4.63402 7.78953 4.64363 7.87031 4.81933L11.0066 11.6407Z" fill="#A5EA75"/>
</svg>
