<svg width="22" height="15" viewBox="0 0 22 15" fill="none" xmlns="http://www.w3.org/2000/svg">
<path d="M12.6356 1.00002V5.6727M18.5177 11.7159H19.6942C20.0385 11.7159 20.3688 11.565 20.6134 11.2961C20.8579 11.0273 20.9969 10.6621 21 10.2801V7.10844C20.9969 6.72647 20.8579 6.3613 20.6134 6.09242C20.3688 5.82353 20.0385 5.67269 19.6942 5.67271H2.28316C1.94307 5.67271 1.61692 5.82259 1.37645 6.0894C1.13597 6.35621 1.00086 6.71807 1.00086 7.09539V10.241C0.994536 10.4321 1.02302 10.6228 1.08462 10.8015C1.14622 10.9801 1.23969 11.1432 1.35939 11.2809C1.4791 11.4186 1.6226 11.5281 1.78133 11.6028C1.94005 11.6775 2.11073 11.716 2.28316 11.7159H3.45957M7.6594 11.7159H14.2591M18.7648 5.6727H6.49474L7.0006 3.45383C7.16296 2.75014 7.5323 2.12669 8.05011 1.68221C8.56793 1.23774 9.2046 0.997665 9.85929 1.00002H15.3885C16.0304 0.998095 16.6549 1.2311 17.1654 1.66292C17.6758 2.09475 18.0436 2.70129 18.2119 3.38857L18.7648 5.6727ZM7.67116 11.6637C7.67116 12.954 6.71783 14 5.54184 14C4.36585 14 3.41252 12.954 3.41252 11.6637C3.41252 10.3733 4.36585 9.32731 5.54184 9.32731C6.71783 9.32731 7.67116 10.3733 7.67116 11.6637ZM18.5177 11.6637C18.5177 12.954 17.5644 14 16.3884 14C15.2124 14 14.2591 12.954 14.2591 11.6637C14.2591 10.3733 15.2124 9.32731 16.3884 9.32731C17.5644 9.32731 18.5177 10.3733 18.5177 11.6637Z" stroke="#A5EA75" stroke-width="1.5" stroke-linecap="round" stroke-linejoin="round"/>
</svg>
