<svg width="14" height="14" viewBox="0 0 14 14" fill="none" xmlns="http://www.w3.org/2000/svg">
<path d="M2.34502 3.48249C1.60419 4.46249 1.16669 5.68166 1.16669 6.99999C1.16669 10.22 3.78002 12.8333 7.00002 12.8333C10.22 12.8333 12.8334 10.22 12.8334 6.99999C12.8334 3.77999 10.22 1.16666 7.00002 1.16666" stroke="#4EA016" stroke-linecap="round" stroke-linejoin="round"/>
<path d="M2.91669 6.99999C2.91669 9.25749 4.74252 11.0833 7.00002 11.0833C9.25752 11.0833 11.0834 9.25749 11.0834 6.99999C11.0834 4.74249 9.25752 2.91666 7.00002 2.91666" stroke="#4EA016" stroke-linecap="round" stroke-linejoin="round"/>
<path d="M7 9.33332C8.28917 9.33332 9.33333 8.28916 9.33333 6.99999C9.33333 5.71082 8.28917 4.66666 7 4.66666" stroke="#4EA016" stroke-linecap="round" stroke-linejoin="round"/>
</svg>
