<svg width="30" height="30" viewBox="0 0 30 30" fill="none" xmlns="http://www.w3.org/2000/svg">
<g clip-path="url(#clip0_208_18258)">
<path fill-rule="evenodd" clip-rule="evenodd" d="M21.0542 8.18483C19.5054 6.7077 17.4386 5.903 15.3 5.93607C11.3868 5.93607 8.06324 8.57613 6.87822 12.1311C6.24989 13.9941 6.24989 16.0114 6.87822 17.8744H6.88372C8.07424 21.4239 11.3923 24.064 15.3055 24.064C17.3256 24.064 19.0598 23.5473 20.4039 22.6347V22.631C21.9857 21.5837 23.066 19.9358 23.4022 18.0728H15.3001V12.2966H29.4485C29.6249 13.2997 29.7076 14.3249 29.7076 15.3445C29.7076 19.9068 28.0771 23.7641 25.2401 26.3766L25.2431 26.3789C22.7573 28.6717 19.3456 30 15.3 30C9.62853 30 4.44205 26.8033 1.89566 21.738C-0.231827 17.4996 -0.231822 12.506 1.89568 8.26754C4.44207 3.19681 9.62853 3.75242e-06 15.3 3.75242e-06C19.0259 -0.0440896 22.625 1.35587 25.3368 3.90226L21.0542 8.18483Z" fill="white"/>
</g>
<defs>
<clipPath id="clip0_208_18258">
<rect width="30" height="30" fill="white"/>
</clipPath>
</defs>
</svg>
