<svg width="16" height="16" viewBox="0 0 16 16" fill="none" xmlns="http://www.w3.org/2000/svg">
<path d="M4 6.66665V5.33331C4 3.12665 4.66667 1.33331 8 1.33331C11.3333 1.33331 12 3.12665 12 5.33331V6.66665" stroke="#EFEFEF" stroke-opacity="0.6" stroke-width="1.5" stroke-linecap="round" stroke-linejoin="round"/>
<path d="M8.00004 12.3333C8.92052 12.3333 9.66671 11.5871 9.66671 10.6667C9.66671 9.74619 8.92052 9 8.00004 9C7.07957 9 6.33337 9.74619 6.33337 10.6667C6.33337 11.5871 7.07957 12.3333 8.00004 12.3333Z" stroke="#EFEFEF" stroke-opacity="0.6" stroke-width="1.5" stroke-linecap="round" stroke-linejoin="round"/>
<path d="M11.3334 14.6667H4.66671C2.00004 14.6667 1.33337 14 1.33337 11.3334V10C1.33337 7.33335 2.00004 6.66669 4.66671 6.66669H11.3334C14 6.66669 14.6667 7.33335 14.6667 10V11.3334C14.6667 14 14 14.6667 11.3334 14.6667Z" stroke="#EFEFEF" stroke-opacity="0.6" stroke-width="1.5" stroke-linecap="round" stroke-linejoin="round"/>
</svg>
