<svg width="88" height="101" viewBox="0 0 88 101" fill="none" xmlns="http://www.w3.org/2000/svg">
<path d="M52.8248 79.8632C53.3086 78.3496 53.7717 76.8222 54.0067 75.2395C57.0339 54.7541 34.7861 41.8782 18.3923 53.5239C3.56733 64.0568 7.61741 87.3344 25.0341 92.359C37.4193 95.9322 46.6253 90.3201 54.76 81.6049C58.6442 77.4442 61.9755 72.0464 67.2904 69.5583C73.6074 66.6002 81.7905 68.6391 86.352 73.7881C86.9602 74.4723 88.4392 75.9306 86.9948 76.3038C82.4747 77.458 80.74 78.3565 77.6713 81.9435C74.3331 85.8416 72.0662 89.47 67.8986 92.746C53.3432 104.205 23.9421 103.479 10.2023 90.8938C-3.53758 78.3081 -1.85811 56.2055 13.8722 46.6056C18.9452 43.5093 24.5711 42.8734 30.2177 41.4428C32.7611 40.8 35.0211 40.3715 36.7835 38.2566C37.5645 37.3167 37.4746 36.3007 39.1541 37.0955C41.5938 38.2635 43.3424 44.1658 43.7225 46.6885C43.7709 46.9926 43.6258 48.0086 43.9437 48.0777C44.462 48.1883 47.7311 43.0738 48.2149 42.3343C49.9981 44.5736 51.5186 47.0064 52.6866 49.6189C53.0529 49.847 54.1034 48.3818 54.3453 48.0639C55.2784 46.8198 55.9903 45.4168 56.7643 44.0691L57.4209 44.7464C57.801 45.3546 58.2779 46.0043 58.5889 46.647C58.9622 47.4073 59.1349 48.3611 59.6326 49.0107C60.1993 45.8522 59.9712 42.5002 59.1695 39.3901C59.0313 38.8441 58.0222 35.4575 57.6974 35.3815C57.4831 35.3262 57.4278 35.5612 57.3587 35.7063C56.0248 38.4709 55.1125 41.5879 53.205 44.1106C53.1151 44.2281 53.0806 44.3732 52.894 44.3317C51.0348 41.1248 48.6365 38.2912 46.2867 35.4368C45.243 34.5659 45.6577 37.4963 45.6093 38.1184C45.5126 39.4454 45.091 41.3806 44.6417 42.6246C44.4413 43.1844 44.1856 43.9447 43.7433 44.3317C43.5359 39.2933 42.3126 34.2273 36.196 34.5797C30.7015 34.8977 22.1244 38.6644 17.4247 33.7158C14.7292 30.8821 18.2126 30.0873 20.1409 28.8087C21.7927 27.7098 23.4998 26.1064 24.6194 24.4684C25.587 23.0446 25.2968 22.8718 25.6423 21.3444C26.9693 15.3937 33.0099 11.9726 38.4699 10.5281C38.5943 10.0305 38.7394 9.5052 38.8016 8.99376C39.0504 6.90652 38.8016 4.46679 39.085 2.33117C39.4167 -0.177664 42.4094 1.33593 43.7502 2.04781C46.3834 3.44391 48.602 5.71776 50.0465 8.30953C50.6547 9.40844 51.1177 11.1086 51.6983 12.0002C52.113 12.6361 53.1981 13.4378 53.7579 14.0805C62.4109 24.026 63.5928 39.7564 62.5492 52.2867C61.9824 59.0668 59.8952 65.6326 59.7639 72.4542C59.674 72.9311 54.0136 79.0062 53.2879 79.6075C53.1359 79.7319 53.0736 79.9323 52.8179 79.877L52.8248 79.8632Z" fill="#EFEFEF"/>
<path d="M31.4202 51.8513C47.5099 51.3883 57.3725 69.2819 48.0421 82.5034C41.3864 91.9305 27.9023 93.7551 19.0972 86.1457C5.51629 74.4032 13.5128 52.3766 31.4202 51.8582V51.8513ZM33.4591 61.0228C33.2863 59.91 34.0189 58.2236 32.4569 58.0854C29.7338 57.8366 30.2867 58.7696 30.2453 61.0297C24.4051 61.5549 22.8501 69.4201 28.5727 71.7216C29.9273 72.2676 34.5718 73.0002 34.9934 74.3825C35.5325 76.1449 34.399 77.3889 32.6988 77.5825C30.5701 77.8244 28.4137 76.8015 26.8379 75.4538C26.6375 75.4538 24.647 77.4373 24.5503 77.7276C24.3568 78.3358 25.6907 79.0891 26.1468 79.3587C27.377 80.0913 28.8077 80.6304 30.2384 80.8101C30.3489 81.3768 30.031 83.1738 30.4319 83.4917C30.6461 83.6645 32.8094 83.6921 33.0513 83.547C33.5351 83.2636 33.231 81.363 33.3208 80.8101C36.8733 80.4507 39.1402 77.9833 38.7947 74.3341C38.5597 71.8944 36.8042 70.6918 34.6893 69.8901C32.5744 69.0884 27.612 68.7981 28.9252 65.529C29.8582 63.1998 33.5558 64.4301 35.1524 65.2871C35.4219 65.4322 35.9264 65.9782 36.1752 65.9575C36.4241 65.9368 38.2141 63.8841 38.2487 63.6145C38.3523 62.9234 36.1269 61.8037 35.5325 61.5688C34.8759 61.313 34.1709 61.1057 33.466 61.0297L33.4591 61.0228Z" fill="#A5EA75"/>
<path d="M33.7725 24.1184C34.9888 23.6656 35.8107 22.8577 35.6082 22.314C35.4058 21.7703 34.2557 21.6966 33.0395 22.1494C31.8232 22.6022 31.0014 23.41 31.2038 23.9538C31.4062 24.4975 32.5563 24.5712 33.7725 24.1184Z" fill="#352B6A"/>
</svg>
