<svg width="18" height="18" viewBox="0 0 18 18" fill="none" xmlns="http://www.w3.org/2000/svg">
<path d="M1.5 16.5H16.5" stroke="#A5EA75" stroke-width="1.5" stroke-miterlimit="10" stroke-linecap="round" stroke-linejoin="round"/>
<path d="M2.21249 16.5L2.24999 7.47743C2.24999 7.01993 2.46749 6.58497 2.82749 6.29997L8.07749 2.21246C8.61749 1.79246 9.37499 1.79246 9.92249 2.21246L15.1725 6.29246C15.54 6.57746 15.75 7.01243 15.75 7.47743V16.5" stroke="#A5EA75" stroke-width="1.5" stroke-miterlimit="10" stroke-linejoin="round"/>
<path d="M9.75 12.75H8.25C7.6275 12.75 7.125 13.2525 7.125 13.875V16.5H10.875V13.875C10.875 13.2525 10.3725 12.75 9.75 12.75Z" stroke="#A5EA75" stroke-width="1.5" stroke-miterlimit="10" stroke-linejoin="round"/>
<path d="M7.125 10.3125H5.625C5.2125 10.3125 4.875 9.975 4.875 9.5625V8.4375C4.875 8.025 5.2125 7.6875 5.625 7.6875H7.125C7.5375 7.6875 7.875 8.025 7.875 8.4375V9.5625C7.875 9.975 7.5375 10.3125 7.125 10.3125Z" stroke="#A5EA75" stroke-width="1.5" stroke-miterlimit="10" stroke-linejoin="round"/>
<path d="M12.375 10.3125H10.875C10.4625 10.3125 10.125 9.975 10.125 9.5625V8.4375C10.125 8.025 10.4625 7.6875 10.875 7.6875H12.375C12.7875 7.6875 13.125 8.025 13.125 8.4375V9.5625C13.125 9.975 12.7875 10.3125 12.375 10.3125Z" stroke="#A5EA75" stroke-width="1.5" stroke-miterlimit="10" stroke-linejoin="round"/>
<path d="M14.25 5.25L14.2275 3H10.9275" stroke="#A5EA75" stroke-width="1.5" stroke-miterlimit="10" stroke-linecap="round" stroke-linejoin="round"/>
</svg>
