<svg width="14" height="14" viewBox="0 0 14 14" fill="none" xmlns="http://www.w3.org/2000/svg">
<path d="M5.54163 8.02084C5.54163 8.58668 5.97913 9.04168 6.5158 9.04168H7.61245C8.07912 9.04168 8.45829 8.64501 8.45829 8.14918C8.45829 7.61835 8.22497 7.42585 7.8808 7.30335L6.12496 6.69085C5.78079 6.56835 5.54747 6.38168 5.54747 5.84501C5.54747 5.35501 5.92662 4.95251 6.39329 4.95251H7.48996C8.02662 4.95251 8.46413 5.40751 8.46413 5.97335" stroke="#4EA016" stroke-linecap="round" stroke-linejoin="round"/>
<path d="M7 4.375V9.625" stroke="#4EA016" stroke-linecap="round" stroke-linejoin="round"/>
<path d="M12.8333 6.99999C12.8333 10.22 10.22 12.8333 6.99996 12.8333C3.77996 12.8333 1.16663 10.22 1.16663 6.99999C1.16663 3.77999 3.77996 1.16666 6.99996 1.16666" stroke="#4EA016" stroke-linecap="round" stroke-linejoin="round"/>
<path d="M9.91663 1.75V4.08333H12.25" stroke="#4EA016" stroke-linecap="round" stroke-linejoin="round"/>
<path d="M12.8333 1.16666L9.91663 4.08332" stroke="#4EA016" stroke-linecap="round" stroke-linejoin="round"/>
</svg>
