<svg width="34" height="33" viewBox="0 0 34 33" fill="none" xmlns="http://www.w3.org/2000/svg">
<path fill-rule="evenodd" clip-rule="evenodd" d="M14.8204 7.40553C14.7155 7.41462 14.6094 7.41927 14.5022 7.41927C12.4744 7.41927 10.8306 5.75841 10.8306 3.70963C10.8306 1.66086 12.4744 0 14.5022 0C16.5299 0 18.1737 1.66086 18.1737 3.70963C18.1737 3.81795 18.1691 3.92518 18.1601 4.03114C18.7381 3.82298 19.3607 3.70963 20.0094 3.70963C23.051 3.70963 25.5167 6.20092 25.5167 9.27408C25.5167 12.3472 23.051 14.8385 20.0094 14.8385C16.9679 14.8385 14.5022 12.3472 14.5022 9.27408C14.5022 8.61858 14.6143 7.98955 14.8204 7.40553ZM15.726 3.70963C15.726 4.39256 15.1781 4.94618 14.5022 4.94618C13.8263 4.94618 13.2783 4.39256 13.2783 3.70963C13.2783 3.02671 13.8263 2.47309 14.5022 2.47309C15.1781 2.47309 15.726 3.02671 15.726 3.70963ZM20.0094 12.3654C21.6992 12.3654 23.069 10.9814 23.069 9.27408C23.069 7.56677 21.6992 6.18272 20.0094 6.18272C18.3197 6.18272 16.9498 7.56677 16.9498 9.27408C16.9498 10.9814 18.3197 12.3654 20.0094 12.3654Z" fill="#A5EA75"/>
<path d="M1.22384 13.6857C0.547931 13.6857 0 14.2393 0 14.9222C0 15.6052 0.547931 16.1588 1.22384 16.1588H7.92038C8.29864 16.1588 8.67175 16.2474 9.01043 16.4176L16.7175 20.2907C17.3623 20.6148 17.5838 21.4342 17.1915 22.0444C16.8896 22.514 16.3098 22.715 15.7862 22.5318L10.8635 20.8089C10.2248 20.5853 9.52768 20.9273 9.30645 21.5726C9.08522 22.2179 9.42362 22.9222 10.0623 23.1457L14.9851 24.8687C16.572 25.4241 18.3293 24.8146 19.2442 23.3916C19.4602 23.0556 19.6148 22.6986 19.7115 22.3336L29.2324 21.1488C30.1224 21.038 30.9815 21.5201 31.3589 22.3419C31.8691 23.453 31.3272 24.767 30.1872 25.1834L15.9589 30.3796C15.2396 30.6423 14.4401 30.5502 13.7978 30.1306L7.83779 26.2368C7.04583 25.7194 6.1228 25.4441 5.17971 25.4441H1.22384C0.547931 25.4441 0 25.9978 0 26.6807C0 27.3636 0.547931 27.9172 1.22384 27.9172H5.17971C5.65125 27.9172 6.11277 28.0548 6.50875 28.3135L12.4688 32.2073C13.7534 33.0466 15.3523 33.2308 16.791 32.7054L31.0192 27.5092C33.51 26.5995 34.6939 23.7285 33.5792 21.3011C32.7546 19.5054 30.8777 18.4523 28.9332 18.6942L19.5124 19.8666C19.1801 19.1182 18.599 18.4742 17.8075 18.0764L10.1005 14.2033C9.42312 13.8628 8.6769 13.6857 7.92038 13.6857H1.22384Z" fill="#A5EA75"/>
</svg>
