<svg width="24" height="24" viewBox="0 0 24 24" fill="none" xmlns="http://www.w3.org/2000/svg">
<path d="M12 0C12.5098 0 12.9231 0.413276 12.9231 0.923077V4.61538C12.9231 5.12519 12.5098 5.53846 12 5.53846C11.4902 5.53846 11.0769 5.12519 11.0769 4.61538V0.923077C11.0769 0.413276 11.4902 0 12 0Z" fill="#0165DD"/>
<path d="M12 18.4615C12.5098 18.4615 12.9231 18.8748 12.9231 19.3846V23.0769C12.9231 23.5867 12.5098 24 12 24C11.4902 24 11.0769 23.5867 11.0769 23.0769V19.3846C11.0769 18.8748 11.4902 18.4615 12 18.4615Z" fill="#0165DD"/>
<path d="M0.923077 11.0769C0.413276 11.0769 0 11.4902 0 12C0 12.5098 0.413276 12.9231 0.923077 12.9231H4.61538C5.12519 12.9231 5.53846 12.5098 5.53846 12C5.53846 11.4902 5.12519 11.0769 4.61538 11.0769H0.923077Z" fill="#0165DD"/>
<path d="M18.4615 12C18.4615 11.4902 18.8748 11.0769 19.3846 11.0769H23.0769C23.5867 11.0769 24 11.4902 24 12C24 12.5098 23.5867 12.9231 23.0769 12.9231H19.3846C18.8748 12.9231 18.4615 12.5098 18.4615 12Z" fill="#0165DD"/>
<path d="M3.51465 19.1799C3.15417 19.5403 3.15417 20.1248 3.51465 20.4853C3.87514 20.8458 4.4596 20.8458 4.82008 20.4853L7.43094 17.8744C7.79142 17.514 7.79142 16.9295 7.43094 16.569C7.07045 16.2085 6.48599 16.2085 6.12551 16.569L3.51465 19.1799Z" fill="#0165DD"/>
<path d="M16.5693 7.431C16.2089 7.07051 16.2089 6.48605 16.5693 6.12557L19.1802 3.51471C19.5407 3.15423 20.1251 3.15423 20.4856 3.51471C20.8461 3.8752 20.8461 4.45966 20.4856 4.82014L17.8748 7.431C17.5143 7.79148 16.9298 7.79148 16.5693 7.431Z" fill="#0165DD"/>
<path d="M19.1799 20.4853C19.5404 20.8458 20.1249 20.8458 20.4853 20.4853C20.8458 20.1249 20.8458 19.5404 20.4853 19.1799L17.8745 16.5691C17.514 16.2086 16.9295 16.2086 16.5691 16.5691C16.2086 16.9295 16.2086 17.514 16.5691 17.8745L19.1799 20.4853Z" fill="#0165DD"/>
<path d="M7.43066 7.43094C7.07017 7.79142 6.48571 7.79142 6.12523 7.43094L3.51437 4.82009C3.15389 4.4596 3.15389 3.87514 3.51437 3.51466C3.87486 3.15417 4.45932 3.15417 4.8198 3.51466L7.43066 6.12551C7.79114 6.486 7.79114 7.07046 7.43066 7.43094Z" fill="#0165DD"/>
<path fill-rule="evenodd" clip-rule="evenodd" d="M16.6154 12C16.6154 14.549 14.549 16.6154 12 16.6154C9.45099 16.6154 7.38462 14.549 7.38462 12C7.38462 9.45099 9.45099 7.38462 12 7.38462C14.549 7.38462 16.6154 9.45099 16.6154 12ZM14.7692 12C14.7692 13.5294 13.5294 14.7692 12 14.7692C10.4706 14.7692 9.23077 13.5294 9.23077 12C9.23077 10.4706 10.4706 9.23077 12 9.23077C13.5294 9.23077 14.7692 10.4706 14.7692 12Z" fill="#0165DD"/>
</svg>
