<svg width="172" height="172" viewBox="0 0 172 172" fill="none" xmlns="http://www.w3.org/2000/svg">
<path d="M85.9991 39.4954C90.0196 39.4954 94.0186 42.0324 97.0644 47.1064L139.434 117.727C145.533 127.868 140.824 136.167 128.999 136.167H42.9991C31.1741 136.167 26.4656 127.86 32.5644 117.727L74.9338 47.1064C77.9796 42.0324 81.9786 39.4954 85.9991 39.4954ZM85.9991 25.1621C76.7111 25.1621 68.2114 30.4654 62.6429 39.7176L20.2736 110.352C14.6406 119.733 14.0243 129.738 18.5894 137.801C23.1546 145.863 32.0556 150.5 42.9991 150.5H128.999C139.943 150.5 148.851 145.87 153.409 137.808C157.967 129.745 157.358 119.741 151.725 110.359L109.355 39.7391C103.787 30.4654 95.2871 25.1621 85.9991 25.1621Z" fill="#FF543E" fill-opacity="0.7"/>
<path d="M86.0003 123.983C91.1457 123.983 95.3169 119.812 95.3169 114.667C95.3169 109.521 91.1457 105.35 86.0003 105.35C80.8548 105.35 76.6836 109.521 76.6836 114.667C76.6836 119.812 80.8548 123.983 86.0003 123.983Z" fill="#FF543E" fill-opacity="0.7"/>
<path d="M96.7493 71.6665C96.7493 65.7182 91.9404 60.9165 85.9993 60.9165C84.2403 60.9185 82.5088 61.3521 80.9565 62.1793C79.4042 63.0064 78.0786 64.2018 77.0959 65.6606C76.1132 67.1194 75.5035 68.7971 75.3202 70.5464C75.137 72.2958 75.3858 74.0634 76.0448 75.6942C80.0151 85.5555 85.9993 100.333 85.9993 100.333L95.9681 75.6942C96.4554 74.4543 96.7493 73.0927 96.7493 71.6665Z" fill="#FF543E" fill-opacity="0.7"/>
</svg>
